<svg width="256mm" height="256mm" version="1.1" viewBox="0 0 256 256" xmlns="http://www.w3.org/2000/svg" xmlns:xlink="http://www.w3.org/1999/xlink"><defs><linearGradient id="b" x1="44.854" x2="771.53" y1="408.19" y2="408.19" gradientTransform="matrix(.21468 0 0 .21468 2.371 2.3714)" gradientUnits="userSpaceOnUse"><stop stop-color="#f6bf2a" offset="0"/><stop stop-color="#ed7421" offset="1"/></linearGradient><linearGradient id="a" x1="106.47" x2="710.55" y1="106.15" y2="347.72" gradientTransform="matrix(.21468 0 0 .21468 2.371 2.3714)" gradientUnits="userSpaceOnUse"><stop stop-color="#f6bf2a" offset="0"/><stop stop-color="#f6bf2a" stop-opacity="0" offset="1"/></linearGradient></defs><g><path d="m40 0h176c22.16 0 40 17.84 40 40v176c0 22.16-17.84 40-40 40h-176c-22.16 0-40-17.84-40-40v-176c0-22.16 17.84-40 40-40z" fill="#20123a" stroke-width=".26458"/><path d="m211.08 182 12.804 13.778h-34.741v13.778h34.742l-12.805 13.778h13.714l19.205-20.666-19.205-20.667zm19.205 20.666 9e-4 9.1e-4 -9e-4 9.1e-4zm-63.08 9.1e-4 -19.205 20.666 19.205 20.667h13.714l-12.804-13.778h34.742v-13.778h-34.743l12.805-13.778zm-5.4907 20.665v1e-3l-9e-4 -9.1e-4z" fill="#de0f63" stroke-width=".3594"/><path d="m25.089 12.108c-7.1921 0-12.982 5.79-12.982 12.982v25.964c0 7.1921 5.79 12.982 12.982 12.982h25.964c7.1921 0 12.982-5.79 12.982-12.982v-25.964c0-7.1921-5.79-12.982-12.982-12.982zm51.928 0v12.982h12.982v-12.982zm12.982 12.982v25.964h12.982v-25.964zm0 25.964h-12.982v12.982h12.982zm0 12.982v12.982h12.982v-12.982zm12.982 12.982v12.982h25.964v-12.982zm25.964 12.982v12.982h12.982v-12.982zm12.982 0h12.982v-12.982h-12.982zm12.982 0v25.964h12.982v-25.964zm-25.964 12.982h-12.982v12.982h-12.982v12.982h12.982v12.982h25.964v-25.964h-12.982zm12.982 38.946v12.982h12.982v12.982h12.982v-38.946h-12.982v12.982zm0 12.982h-12.982v12.982h12.982zm-38.946-38.946v-25.964h-12.982v25.964zm-12.982 0h-12.982v25.964h12.982zm0 25.964v12.982h-12.982v12.982h38.946v-12.982h-12.982v-12.982zm0-51.928v-12.982h-12.982v12.982zm-12.982 0h-12.982v12.982h12.982zm-12.982 0v-12.982h-12.982v12.982zm64.911-77.893c-7.192 0-12.982 5.79-12.982 12.982v25.964c0 7.1921 5.79 12.982 12.982 12.982h25.964c7.1921 0 12.982-5.79 12.982-12.982v-25.964c0-7.1921-5.79-12.982-12.982-12.982zm-97.366 12.982h12.982c3.596 0 6.4911 2.895 6.4911 6.4911v12.982c0 3.596-2.895 6.4911-6.4911 6.4911h-12.982c-3.596 0-6.4911-2.895-6.4911-6.4911v-12.982c0-3.596 2.895-6.4911 6.4911-6.4911zm103.86 0h12.982c3.596 0 6.491 2.895 6.491 6.4911v12.982c0 3.596-2.895 6.4911-6.491 6.4911h-12.982c-3.596 0-6.491-2.895-6.491-6.4911v-12.982c0-3.596 2.895-6.4911 6.491-6.4911zm-123.33 51.928v25.964h25.964v-12.982h-12.982v-12.982zm12.982 38.946c-7.1921 0-12.982 5.79-12.982 12.982v25.964c0 7.1921 5.79 12.982 12.982 12.982h25.964c7.1921 0 12.982-5.79 12.982-12.982v-25.964c0-7.1921-5.79-12.982-12.982-12.982zm6.4911 12.982h12.982c3.596 0 6.4911 2.895 6.4911 6.4911v12.982c0 3.596-2.895 6.491-6.4911 6.491h-12.982c-3.596 0-6.4911-2.895-6.4911-6.491v-12.982c0-3.596 2.895-6.4911 6.4911-6.4911z" fill="url(#b)" stroke="url(#a)" stroke-width=".21468"/></g></svg>
